<?xml version="1.0" encoding="UTF-8" standalone="no"?>
<!DOCTYPE svg PUBLIC "-//W3C//DTD SVG 1.1//EN" "http://www.w3.org/Graphics/SVG/1.1/DTD/svg11.dtd">
<svg width="100%" height="100%" viewBox="0 0 1080 1080" version="1.1" xmlns="http://www.w3.org/2000/svg" xmlns:xlink="http://www.w3.org/1999/xlink" xml:space="preserve" xmlns:serif="http://www.serif.com/" style="fill-rule:evenodd;clip-rule:evenodd;stroke-linejoin:round;stroke-miterlimit:2;">
    <g transform="matrix(1,0,0,1,-1178.959804,0)">
        <g id="dark-mode" serif:id="dark mode" transform="matrix(1,0,0,1,1178.959804,0)">
            <rect x="0" y="0" width="1080" height="1080" style="fill:none;"/>
            <g transform="matrix(1,0,0,1,-0,27.711412)">
                <g transform="matrix(1,0,0,1,0,-88.258076)">
                    <g transform="matrix(0.996791,0,0,0.996791,829.06948,311.737347)">
                        <path d="M0,0C-1.304,8.213 -2.843,16.348 -4.574,24.48C-4.819,25.639 -5.063,26.797 -5.315,27.99C-6.103,31.723 -6.895,35.455 -7.688,39.188C-8.238,41.789 -8.788,44.39 -9.338,46.991C-10.414,52.081 -11.492,57.171 -12.571,62.26C-13.704,67.604 -14.834,72.948 -15.961,78.293C-19.945,97.168 -24.016,116.024 -28.094,134.878C-30.768,147.244 -33.41,159.616 -36,172L-38,172C-39.477,170.509 -39.477,170.509 -41.181,168.461C-46.523,162.183 -52.325,156.377 -58.126,150.524C-59.511,149.122 -60.891,147.715 -62.265,146.302C-64.263,144.251 -66.276,142.216 -68.293,140.184C-68.907,139.547 -69.52,138.911 -70.152,138.255C-72.055,136.304 -72.055,136.304 -75,134C-79.456,134.426 -81.837,137.474 -84.797,140.539C-85.349,141.098 -85.902,141.657 -86.471,142.233C-88.238,144.024 -89.994,145.824 -91.75,147.625C-94.053,149.975 -96.361,152.321 -98.672,154.664C-99.232,155.232 -99.791,155.801 -100.368,156.386C-103.783,159.834 -107.296,163.083 -110.997,166.224C-115.543,170.254 -119.736,174.675 -124,179C-125.893,180.92 -127.789,182.836 -129.688,184.75C-130.516,185.59 -131.345,186.431 -132.199,187.297C-134.372,189.394 -136.566,191.379 -138.85,193.35C-142.993,196.944 -146.866,200.755 -150.719,204.656C-151.421,205.362 -152.123,206.068 -152.847,206.796C-155.067,209.028 -157.284,211.264 -159.5,213.5C-162.424,216.451 -165.352,219.398 -168.281,222.344C-168.937,223.007 -169.592,223.671 -170.267,224.355C-174.094,228.201 -178.027,231.85 -182.152,235.375C-185.427,238.255 -188.448,241.388 -191.5,244.5C-196.507,249.55 -201.542,254.436 -207,259C-208.371,260.205 -208.371,260.205 -209.77,261.434C-222.78,272.804 -236.962,282.513 -252,291C-252.654,291.372 -253.308,291.744 -253.982,292.128C-269.47,300.869 -285.702,307.051 -302.562,312.625C-303.594,312.973 -304.625,313.321 -305.687,313.68C-327.742,320.774 -350.767,324.326 -373.604,327.873C-378.336,328.61 -383.066,329.361 -387.797,330.109C-390.382,330.518 -392.968,330.925 -395.555,331.332C-403.711,332.617 -411.842,333.996 -419.958,335.513C-423,336 -423,336 -427,336C-427.384,337.231 -427.384,337.231 -427.775,338.488C-429.175,342.501 -430.848,346.325 -432.598,350.195C-432.948,350.977 -433.298,351.758 -433.659,352.563C-434.791,355.085 -435.926,357.605 -437.062,360.125C-437.842,361.856 -438.621,363.588 -439.4,365.32C-440.552,367.882 -441.705,370.444 -442.859,373.005C-444.89,377.515 -446.901,382.033 -448.879,386.566C-458.853,409.391 -472.416,427.167 -496,437C-504.614,440.266 -512.498,442.132 -521.761,442.114C-523.062,442.113 -524.363,442.113 -525.703,442.113C-527.103,442.108 -528.503,442.103 -529.902,442.098C-531.35,442.096 -532.797,442.094 -534.244,442.093C-538.034,442.09 -541.823,442.08 -545.612,442.069C-549.487,442.058 -553.362,442.054 -557.236,442.049C-564.824,442.038 -572.412,442.021 -580,442C-579.445,438.886 -578.762,436.124 -577.46,433.242C-576.991,432.195 -576.991,432.195 -576.513,431.127C-576.174,430.384 -575.834,429.641 -575.484,428.875C-575.129,428.087 -574.774,427.298 -574.407,426.486C-573.278,423.987 -572.141,421.493 -571,419C-570.642,418.217 -570.284,417.434 -569.916,416.627C-567.376,411.077 -564.816,405.537 -562.25,400C-560.66,396.567 -559.07,393.133 -557.48,389.699C-557.092,388.861 -556.705,388.024 -556.305,387.161C-554.032,382.248 -551.781,377.327 -549.551,372.395C-535.673,341.756 -518.701,311.436 -492,290C-491.058,289.232 -490.115,288.463 -489.145,287.672C-456.081,261.184 -416.77,251.358 -375.797,244.432C-365.714,242.725 -355.852,240.761 -346,238C-345.242,237.791 -344.484,237.583 -343.703,237.368C-309.886,227.986 -280.177,212.524 -254,189C-252.55,187.697 -252.55,187.697 -251.07,186.367C-248.575,184.097 -246.095,181.812 -243.626,179.513C-241.867,177.876 -240.102,176.247 -238.336,174.617C-231.779,168.549 -225.339,162.4 -219.062,156.043C-216.499,153.458 -213.901,150.979 -211.125,148.625C-206.579,144.764 -202.443,140.496 -198.274,136.237C-195.299,133.218 -192.275,130.329 -189.062,127.562C-184.83,123.909 -180.914,119.99 -177,116C-173.117,112.041 -169.237,108.149 -165.031,104.531C-160.628,100.739 -156.57,96.644 -152.5,92.5C-147.666,87.578 -142.821,82.866 -137.451,78.525C-135.655,76.989 -135.655,76.989 -136,74C-137.307,72.27 -137.307,72.27 -139.121,70.57C-139.802,69.896 -140.483,69.222 -141.184,68.528C-142.299,67.445 -142.299,67.445 -143.438,66.34C-144.192,65.594 -144.947,64.848 -145.724,64.08C-148.143,61.692 -150.57,59.314 -153,56.938C-155.429,54.557 -157.855,52.173 -160.276,49.784C-161.784,48.295 -163.298,46.812 -164.816,45.333C-165.497,44.663 -166.178,43.992 -166.879,43.301C-167.483,42.71 -168.087,42.12 -168.709,41.511C-170,40 -170,40 -170,38C-165.688,37.018 -161.375,36.04 -157.062,35.062C-156.385,34.909 -155.707,34.755 -155.009,34.597C-146.291,32.623 -137.567,30.679 -128.832,28.777C-127.546,28.497 -127.546,28.497 -126.234,28.212C-125.372,28.024 -124.511,27.836 -123.623,27.643C-107.395,24.109 -91.222,20.431 -75.09,16.48C-68.739,14.927 -62.368,13.49 -55.98,12.094C-49.815,10.746 -43.66,9.356 -37.504,7.966C-36.133,7.657 -34.762,7.348 -33.391,7.039C-24.217,4.971 -15.058,2.857 -5.922,0.629C-3,0 -3,0 0,0Z" style="fill:rgb(59,180,137);fill-rule:nonzero;"/>
                    </g>
                    <g transform="matrix(0.996791,0,0,0.996791,554.95187,268.87532)">
                        <path d="M0,0C3.556,2.797 6.79,5.816 10,9C10.739,9.681 11.477,10.361 12.238,11.062C24.177,22.938 30.331,40.432 36.965,55.599C41.579,66.136 46.398,76.572 51.25,87C52.879,90.504 54.508,94.008 56.137,97.512C56.54,98.38 56.944,99.249 57.36,100.143C62.323,110.835 67.215,121.56 72.101,132.287C72.418,132.983 72.735,133.679 73.062,134.396C73.911,136.258 74.758,138.121 75.606,139.984C76.428,141.762 77.279,143.527 78.197,145.258C79.399,147.865 78.931,149.327 78,152C76.215,154.211 76.215,154.211 73.938,156.375C72.71,157.551 72.71,157.551 71.457,158.75C68.737,161.24 65.964,163.656 63.164,166.055C60.51,168.44 58.005,170.961 55.5,173.5C52.447,176.595 49.377,179.619 46.062,182.438C41.958,185.935 38.217,189.755 34.431,193.589C31.04,197.005 27.548,200.226 23.875,203.34C21.049,205.842 18.46,208.566 15.859,211.301C13.997,213.003 12.302,213.997 10,215C3.314,202.174 -2.561,188.993 -8.43,175.78C-10.919,170.176 -13.428,164.582 -15.94,158.988C-18.086,154.21 -20.225,149.43 -22.365,144.649C-23.487,142.144 -24.611,139.64 -25.736,137.136C-27.161,133.966 -28.583,130.795 -30.002,127.622C-30.797,125.847 -31.596,124.074 -32.395,122.3C-32.869,121.238 -33.343,120.176 -33.832,119.082C-34.252,118.146 -34.672,117.21 -35.105,116.245C-36,114 -36,114 -36,112L-38,112C-38.34,113.134 -38.681,114.269 -39.031,115.438C-41.345,122.369 -44.437,128.973 -47.433,135.63C-48.523,138.05 -49.607,140.473 -50.69,142.896C-52.137,146.134 -53.586,149.371 -55.036,152.608C-57.505,158.124 -59.946,163.653 -62.375,169.188C-62.792,170.137 -63.209,171.087 -63.639,172.066C-64.554,174.149 -65.469,176.233 -66.383,178.316C-67.952,181.891 -69.523,185.465 -71.095,189.038C-78.219,205.238 -85.342,221.438 -92.372,237.679C-93.173,239.53 -93.977,241.38 -94.781,243.23C-96.958,248.248 -99.122,253.269 -101.211,258.324C-101.532,259.09 -101.852,259.855 -102.183,260.644C-102.977,262.545 -103.757,264.452 -104.535,266.359C-106.214,269.385 -106.862,269.768 -110,271C-112.095,271.435 -114.204,271.798 -116.32,272.113C-117.569,272.307 -118.818,272.5 -120.105,272.699C-120.762,272.799 -121.418,272.899 -122.095,273.001C-133.631,274.769 -144.9,276.871 -156.047,280.393C-158.002,281.001 -159.965,281.56 -161.938,282.109C-186.865,289.215 -208.465,302.536 -229,318C-227.235,312.014 -224.522,306.508 -221.875,300.875C-216.812,290.012 -211.907,279.087 -207.062,268.125C-201.811,256.249 -196.453,244.435 -190.943,232.677C-186.052,222.201 -181.374,211.635 -176.7,201.062C-173.059,192.829 -169.418,184.606 -165.5,176.5C-161.317,167.84 -157.448,159.045 -153.562,150.25C-147.831,137.275 -141.973,124.366 -136,111.5C-130.114,98.82 -124.338,86.099 -118.688,73.312C-114.084,62.905 -109.466,52.507 -104.702,42.172C-103.909,40.45 -103.122,38.726 -102.335,37.001C-97.21,25.947 -91.551,16.724 -83,8C-82.335,7.299 -81.67,6.598 -80.984,5.875C-59.147,-15.462 -24.773,-16.692 0,0Z" style="fill:white;fill-rule:nonzero;"/>
                    </g>
                    <g transform="matrix(0.996791,0,0,0.996791,687.525114,536.015392)">
                        <path d="M0,0C28.669,62.007 28.669,62.007 40.312,88.125C45.954,100.773 51.767,113.338 57.605,125.896C63.446,138.459 69.219,151.049 74.926,163.673C78.871,172.394 82.903,181.067 87.062,189.688C98,212.365 98,212.365 98,217C89.41,217.117 80.821,217.205 72.231,217.259C68.24,217.285 64.25,217.32 60.26,217.377C56.395,217.432 52.531,217.462 48.666,217.474C47.206,217.483 45.745,217.501 44.285,217.529C22.171,217.926 2.724,208.948 -13.281,193.848C-24.184,182.231 -30.542,168.083 -36.688,153.625C-37.472,151.804 -38.258,149.984 -39.046,148.165C-40.627,144.506 -42.202,140.845 -43.772,137.182C-46.63,130.522 -49.544,123.888 -52.461,117.254C-53.307,115.326 -54.149,113.396 -54.989,111.466C-57.578,105.52 -60.18,99.582 -62.834,93.665C-64.079,90.884 -65.314,88.098 -66.547,85.312C-67.134,83.994 -67.726,82.677 -68.322,81.363C-69.142,79.556 -69.945,77.741 -70.746,75.926C-71.437,74.385 -71.437,74.385 -72.142,72.814C-73.097,69.681 -73.034,68.08 -72,65C-70.102,62.859 -70.102,62.859 -67.625,60.75C-66.712,59.964 -65.8,59.177 -64.859,58.367C-62.216,56.179 -59.55,54.023 -56.875,51.875C-49.885,46.218 -43.442,39.992 -36.921,33.808C-35.225,32.211 -33.515,30.635 -31.789,29.07C-23.791,21.817 -16.174,14.224 -8.626,6.501C-7.797,5.66 -6.968,4.819 -6.113,3.953C-4.996,2.811 -4.996,2.811 -3.857,1.646C-2,0 -2,0 0,0Z" style="fill:white;fill-rule:nonzero;"/>
                    </g>
                    <g transform="matrix(0.996791,0,0,0.996791,402.442799,647.656019)">
                        <path d="M0,0C-0.672,4.761 -2.525,8.764 -4.5,13.098C-4.852,13.881 -5.204,14.663 -5.566,15.47C-6.706,18.003 -7.852,20.533 -9,23.062C-9.784,24.798 -10.568,26.534 -11.351,28.271C-12.511,30.841 -13.671,33.41 -14.833,35.979C-16.878,40.498 -18.9,45.024 -20.883,49.57C-30.849,72.395 -44.421,90.169 -68,100C-76.614,103.266 -84.498,105.132 -93.761,105.114C-95.062,105.113 -96.363,105.113 -97.703,105.113C-99.103,105.108 -100.503,105.103 -101.902,105.098C-103.35,105.096 -104.797,105.094 -106.244,105.093C-110.034,105.09 -113.823,105.08 -117.612,105.069C-121.487,105.058 -125.362,105.054 -129.236,105.049C-136.824,105.038 -144.412,105.021 -152,105C-151.67,103.35 -151.34,101.7 -151,100C-149.515,99.505 -149.515,99.505 -148,99C-147.633,97.676 -147.307,96.34 -147,95C-139.104,81.415 -128.87,68.303 -118,57C-117.508,56.477 -117.017,55.955 -116.51,55.416C-88.869,26.112 -53.76,11.074 -15.062,2.125C-14.133,1.909 -13.203,1.694 -12.245,1.472C-11.371,1.278 -10.498,1.083 -9.598,0.883C-8.829,0.712 -8.061,0.54 -7.27,0.364C-4.813,-0.03 -2.484,-0.062 0,0Z" style="fill:white;fill-rule:nonzero;"/>
                    </g>
                </g>
                <g transform="matrix(1,0,0,1,-1118.799958,-81.290268)">
                    <text x="1404.812px" y="872.663px" style="font-family:'PlusJakartaSans-ExtraBold', 'Plus Jakarta Sans';font-weight:800;font-size:75px;fill:white;">AR<tspan x="1508.237px " y="872.663px ">T</tspan>HA</text>
                    <g transform="matrix(75,0,0,75,1912.787458,872.662528)">
                    </g>
                    <text x="1672.187px" y="872.663px" style="font-family:'PlusJakartaSans-Italic', 'Plus Jakarta Sans';font-style:italic;font-size:75px;fill:white;">TRA<tspan x="1803.962px " y="872.663px ">C</tspan>K</text>
                </g>
            </g>
        </g>
    </g>
</svg>
